<svg xmlns="http://www.w3.org/2000/svg" width="50.045" height="38.916" viewBox="0 0 50.045 38.916"><defs><style>.a{fill:#f6efef;}</style></defs><path class="a" d="M24.344,42.146,8.326,55.338V69.576a1.39,1.39,0,0,0,1.39,1.39l9.735-.025a1.39,1.39,0,0,0,1.383-1.39V61.236a1.39,1.39,0,0,1,1.39-1.39h5.56a1.39,1.39,0,0,1,1.39,1.39v8.309a1.39,1.39,0,0,0,1.39,1.394l9.732.027a1.39,1.39,0,0,0,1.39-1.39V55.329L25.673,42.146a1.059,1.059,0,0,0-1.329,0Zm25.3,8.967-7.263-5.987V33.093a1.043,1.043,0,0,0-1.043-1.043H36.474a1.043,1.043,0,0,0-1.043,1.043V39.4L27.654,33a4.17,4.17,0,0,0-5.3,0L.363,51.112a1.043,1.043,0,0,0-.139,1.468l2.215,2.693a1.043,1.043,0,0,0,1.469.142L24.344,38.584a1.059,1.059,0,0,1,1.329,0L46.109,55.415a1.043,1.043,0,0,0,1.468-.139l2.215-2.693a1.043,1.043,0,0,0-.148-1.471Z" transform="translate(0.015 -32.05)"/></svg>